# xmcd CD database file
#
# Track frame offsets:
#	151
#	40290
#	66544
#	96773
#	133795
#	149756
#	182044
#	211328
#	239574
#
# Disc length: 3574 seconds
#
# Revision: 0
# Processed by: cddbd v1.4PL0 Copyright (c) Steve Scherf et al.
# Submitted via: CDex 1.50beta9
#
DISCID=920df409
DTITLE=Tino Derado - Aguacero
DYEAR=1999
DGENRE=Jazz
TTITLE0=Aguacero
TTITLE1=Zayeku
TTITLE2=Tom Thumb
TTITLE3=Mirocatu
TTITLE4=Tweaked
TTITLE5=Gelsomina
TTITLE6=Kumbaya
TTITLE7=El Derado
TTITLE8=Symbiosis
EXTD=YEAR: 1999
EXTT0=
EXTT1=
EXTT2=
EXTT3=
EXTT4=
EXTT5=
EXTT6=
EXTT7=
EXTT8=
PLAYORDER=
